<svg width="161" height="63" viewBox="0 0 161 63" fill="none" xmlns="http://www.w3.org/2000/svg">
<path d="M50 37H31V9H50V37ZM37 30H44V27.4072H39.333V24H44V22H39.333V18.0742H44V16H37V30Z" fill="white"/>
<path d="M30 37H10V9H30V37ZM14.5 16V30H17V19.5C17.5 20.5 17 19.5 20.2607 27.1758C20.9999 25.4998 22.0005 23 23.1309 20.373V30H26V16H23.1309L20.2607 23.2588L17.3916 16H14.5Z" fill="white"/>
<path d="M70 37H51V9H70V37ZM61 15.5C58.5 15.5 58.6248 15.6487 58 15.9609C57.3751 16.2732 56.5 17 56.5 19V26.5C56.5 28.5 58.5 30 59.5 30H60.5C61 30 62.1368 29.6236 62.5 29C62.6663 28.7144 63 28.3769 63 28V30H65V22H61V24H62V27.5C59.5 28.5 59 27.2793 59 26.7793V19C59.0172 18.2188 59.2361 17.9998 60 18H63V20H65V18C65 17.6667 65 17 64.5 16.5C63.8675 15.8675 63.5 15.5 61 15.5Z" fill="white"/>
<path d="M91 37H71V9H91V37ZM80 15.5C78 18.3 76.556 26.5 76.7227 30H79.5V27H82.5V30H85C85 23 82.5 15.5 82 15.5H80Z" fill="white"/>
<path d="M82 24H80V23.2267C79.9999 23.1515 80.0566 19.5 81 19.5C81.9304 19.5 81.997 23.3552 82 23.2267C81.9872 23.6826 82 24 82 24Z" fill="white"/>
<path d="M111 37H92V9H111V37ZM102.244 16.2373C100.244 15.7374 97 16.2373 97 16.2373V29.5C97.0003 29.5 101.667 29.6667 102.5 29.5C103.333 29.3333 105 28.4 105 26C105 23.6 103.333 22.6667 102.5 22.5C103.333 22.1667 104.5 21.5 104.5 19.5C104.5 17.5002 103.851 16.6391 102.244 16.2373Z" fill="white"/>
<path d="M99.3398 21V18.4145C99.3398 18.4145 100.765 18.2913 101.122 18.4145C101.478 18.5376 101.834 19.0054 101.834 19.8919C101.834 20.7784 101.122 21 100.765 21H99.3398Z" fill="white"/>
<path d="M99.4999 26.5887V24.1211H101.14C102.228 24.1211 102.5 24.8261 102.5 25.1786C102.5 26.3067 101.654 26.5887 101.2 26.5887H99.4999Z" fill="white"/>
<path d="M131 37H112V9H131V37ZM121 15C118.791 15 117 16.7909 117 19V26C117 28.2091 118.791 30 121 30H122C124.209 30 126 28.2091 126 26V19C126 16.7909 124.209 15 122 15H121Z" fill="white"/>
<rect x="120" y="17" width="3" height="11" rx="1.5" fill="white"/>
<path d="M151 37H132V9H151V37ZM137 18L139 22L137 27.5V30H139.5L141.5 24.5L143.5 30H146V27.5L144 22.5L146 18V15.5H143.5L141.5 20.5L139.5 15.5H137V18Z" fill="white"/>
<path d="M36.5 49L38.5 44H41V54H39V49L36.5 52.5L34 49V54H32V44H34.5L36.5 49ZM47 46H44V48H47V50H44V52H47V54H42V44H47V46ZM53 46H50V48H53V50H50V52H53V54H48V44H53V46ZM60 46H58V54H56V46H54V44H60V46ZM68.5 44C69.3 44.4 69.8333 45.5 70 46V49C70 50.2 69 50.8333 68.5 51H66.5V54H64V44H68.5ZM73.5 52H76V54H71V44H73.5V52ZM82.5 44C83 45.5 84.1667 50.8333 84.5 54H82V52H80V54H77.5C77.9 50.4 79 45.8333 79.5 44H82.5ZM87.5 48L89 44H91L88.5 50V54H86.5V50L84 44H86L87.5 48ZM101 45V48H99V46H97V48L99.5 49L101 50.5V53L100 54H96C95.5 53.9999 95 53 95 53V51H97V52H98.5C98.5 52 99 52 99 51.5V51L96 49.5L95.5 49L95 48V46L95.5 45L96.5 44H100L101 45ZM104.5 48.5H106.5V44H109V54H106.5V50H104.5V54H102V44H104.5V48.5ZM114.5 44C114.5 44 115.5 47.0001 116 54H114V52H112V54H110C110 50 110.518 47.9112 111.5 44H114.5ZM121 44C121.667 44.1667 123 44.9001 123 46.5C123 48.0999 122.333 49.1666 122 49.5C122.167 49.5 122.6 50.4 123 54H121C121 53.1667 120.9 51.4 120.5 51H119V54H117V44H121ZM129 46H126V48H129V50H126V52H129V54H124V44H129V46ZM80.5 50H81.5L81 47.5L80.5 50ZM112.5 50H113.5L113 47.5L112.5 50ZM66 46V49H67C67.3333 49 68 48.7 68 47.5C68 46.3 67.3333 46 67 46H66ZM119 46V49H120C120.333 49 121 48.7 121 47.5C121 46.3 120.5 46 120.5 46H119ZM131.5 44.5H131V45.5H130.5V44.5H130V44H131.5V44.5ZM133 45L133.5 44H134V45.5H133.5V44.5L133 45.5L132.5 44.5V45.5H132V44H132.5L133 45Z" fill="white"/>
</svg>
