<svg width="26" height="27" viewBox="0 0 26 27" fill="none" xmlns="http://www.w3.org/2000/svg">
<rect x="0.5" y="0.5" width="25" height="26" stroke="black"/>
<rect x="1.5" y="3.5" width="23" height="22" stroke="white" stroke-opacity="0.9"/>
<line x1="2" y1="7.5" x2="24" y2="7.5" stroke="white" stroke-opacity="0.5"/>
<line x1="2" y1="8.5" x2="24" y2="8.5" stroke="white" stroke-opacity="0.7"/>
<line x1="5" y1="12.5" x2="8" y2="12.5" stroke="white" stroke-opacity="0.8"/>
<line x1="5" y1="11.5" x2="8" y2="11.5" stroke="white" stroke-opacity="0.5"/>
<line x1="5" y1="16.5" x2="8" y2="16.5" stroke="white" stroke-opacity="0.9"/>
<path d="M5 21.5H8" stroke="white"/>
<path d="M11 21.5H15" stroke="white"/>
<path d="M18 21.5H22" stroke="white"/>
<path d="M11 20.5L15 20.5" stroke="white" stroke-opacity="0.3"/>
<path d="M5 20.5H8" stroke="white" stroke-opacity="0.3"/>
<path d="M18 20.5L22 20.5" stroke="white" stroke-opacity="0.3"/>
<path d="M8.5 11V13" stroke="white" stroke-opacity="0.2"/>
<path d="M5 17.5H8M8 16.5H9" stroke="white" stroke-opacity="0.4"/>
<path d="M11 16.5H15" stroke="white" stroke-opacity="0.8"/>
<path d="M11 17.5H15" stroke="white" stroke-opacity="0.3"/>
<path d="M17 16.5H22" stroke="white" stroke-opacity="0.3"/>
<path d="M18 16.5H21" stroke="white" stroke-opacity="0.8"/>
<path d="M18 17.5H22" stroke="white" stroke-opacity="0.2"/>
<path d="M18 17.5H21" stroke="white" stroke-opacity="0.1"/>
<path d="M17 17.5H18M17 12.5H22M17 11.5H22" stroke="white" stroke-opacity="0.15"/>
<path d="M18 11.5H21" stroke="white" stroke-opacity="0.5"/>
<path d="M21 11.5H22" stroke="white" stroke-opacity="0.2"/>
<path d="M18 12.5H21" stroke="white" stroke-opacity="0.8"/>
<path d="M21 12.5H22" stroke="white" stroke-opacity="0.5"/>
<path d="M17 12.5H18" stroke="white" stroke-opacity="0.2"/>
<path d="M23.5 4V25M2 24.5H23M2.5 24V4M4.5 1V3M4 2.5H5M6 2.5H7M9 2.5H10H12M14 2.5H17M19 2.5H22" stroke="white" stroke-opacity="0.2"/>
<path d="M2 2.5H6.5M24 2.5H21.5M21.5 0V2.5M21.5 2.5H19.5M19.5 0V2.5M19.5 2.5H16.5M11.5 0.5V2.5M11.5 2.5H14.5M11.5 2.5H9.5M14.5 0V2.5M14.5 2.5H16.5M16.5 0V2.5M9.5 0V2.5M9.5 2.5H6.5M6.5 1V2V2.5" stroke="white" stroke-opacity="0.1"/>
<path d="M11 11.5H15" stroke="white" stroke-opacity="0.5"/>
<path d="M11 12.5H15" stroke="white" stroke-opacity="0.8"/>
</svg>
